<svg width="1089" height="65" viewBox="0 0 1089 65" fill="none" xmlns="http://www.w3.org/2000/svg">
<path d="M476.717 45V20.2727H492.219V23.4844H480.447V31.0185H491.411V34.218H480.447V41.7884H492.364V45H476.717ZM503.199 20.2727L509.115 29.9439H509.308L515.224 20.2727H519.547L511.844 32.6364L519.595 45H515.249L509.308 35.4616H509.115L503.175 45H498.828L506.712 32.6364L498.876 20.2727H503.199ZM526.647 45V20.2727H535.461C537.385 20.2727 538.979 20.6229 540.243 21.3232C541.506 22.0234 542.452 22.9813 543.08 24.1967C543.708 25.4041 544.022 26.7644 544.022 28.2777C544.022 29.799 543.704 31.1674 543.068 32.3828C542.44 33.5902 541.49 34.5481 540.219 35.2564C538.955 35.9567 537.365 36.3068 535.449 36.3068H529.388V33.1435H535.111C536.327 33.1435 537.313 32.9342 538.069 32.5156C538.826 32.089 539.381 31.5095 539.736 30.777C540.09 30.0445 540.267 29.2114 540.267 28.2777C540.267 27.344 540.09 26.5149 539.736 25.7905C539.381 25.0661 538.822 24.4986 538.057 24.0881C537.301 23.6776 536.303 23.4723 535.063 23.4723H530.378V45H526.647ZM551.796 45V20.2727H555.526V41.7884H566.731V45H551.796ZM594.903 32.6364C594.903 35.2765 594.42 37.5464 593.455 39.446C592.489 41.3376 591.165 42.7945 589.482 43.8168C587.808 44.831 585.904 45.3381 583.771 45.3381C581.63 45.3381 579.719 44.831 578.036 43.8168C576.362 42.7945 575.042 41.3336 574.076 39.4339C573.11 37.5343 572.627 35.2685 572.627 32.6364C572.627 29.9962 573.11 27.7303 574.076 25.8388C575.042 23.9392 576.362 22.4822 578.036 21.468C579.719 20.4458 581.63 19.9347 583.771 19.9347C585.904 19.9347 587.808 20.4458 589.482 21.468C591.165 22.4822 592.489 23.9392 593.455 25.8388C594.42 27.7303 594.903 29.9962 594.903 32.6364ZM591.209 32.6364C591.209 30.6241 590.883 28.9297 590.231 27.5533C589.587 26.1688 588.702 25.1224 587.575 24.4141C586.456 23.6977 585.188 23.3395 583.771 23.3395C582.347 23.3395 581.075 23.6977 579.956 24.4141C578.837 25.1224 577.952 26.1688 577.3 27.5533C576.656 28.9297 576.334 30.6241 576.334 32.6364C576.334 34.6487 576.656 36.3471 577.3 37.7315C577.952 39.108 578.837 40.1544 579.956 40.8707C581.075 41.5791 582.347 41.9332 583.771 41.9332C585.188 41.9332 586.456 41.5791 587.575 40.8707C588.702 40.1544 589.587 39.108 590.231 37.7315C590.883 36.3471 591.209 34.6487 591.209 32.6364ZM602.955 45V20.2727H611.769C613.685 20.2727 615.274 20.6027 616.538 21.2628C617.81 21.9228 618.76 22.8364 619.387 24.0036C620.015 25.1626 620.329 26.5028 620.329 28.0241C620.329 29.5374 620.011 30.8696 619.375 32.0206C618.748 33.1636 617.798 34.053 616.526 34.6889C615.262 35.3248 613.672 35.6428 611.757 35.6428H605.08V32.4311H611.419C612.626 32.4311 613.608 32.258 614.365 31.9119C615.129 31.5658 615.689 31.0627 616.043 30.4027C616.397 29.7427 616.574 28.9498 616.574 28.0241C616.574 27.0904 616.393 26.2815 616.031 25.5973C615.677 24.9131 615.117 24.3899 614.353 24.0277C613.596 23.6574 612.602 23.4723 611.37 23.4723H606.686V45H602.955ZM615.162 33.8438L621.271 45H617.021L611.032 33.8438H615.162ZM628.269 45V20.2727H643.772V23.4844H632V31.0185H642.963V34.218H632V41.7884H643.917V45H628.269ZM652.155 45V20.2727H660.969C662.885 20.2727 664.475 20.6027 665.738 21.2628C667.01 21.9228 667.96 22.8364 668.588 24.0036C669.216 25.1626 669.53 26.5028 669.53 28.0241C669.53 29.5374 669.212 30.8696 668.576 32.0206C667.948 33.1636 666.998 34.053 665.726 34.6889C664.463 35.3248 662.873 35.6428 660.957 35.6428H654.28V32.4311H660.619C661.826 32.4311 662.808 32.258 663.565 31.9119C664.33 31.5658 664.889 31.0627 665.243 30.4027C665.598 29.7427 665.775 28.9498 665.775 28.0241C665.775 27.0904 665.594 26.2815 665.231 25.5973C664.877 24.9131 664.318 24.3899 663.553 24.0277C662.796 23.6574 661.802 23.4723 660.571 23.4723H655.886V45H652.155ZM664.362 33.8438L670.471 45H666.221L660.233 33.8438H664.362Z" fill="#B4B4B4"/>
<path d="M713.009 32.6364C713.508 29.6098 714.365 26.8248 715.58 24.2812C716.796 21.7377 718.349 19.3913 720.241 17.2422H723.549C722.825 18.0391 722.108 19.017 721.4 20.1761C720.692 21.3352 720.031 22.607 719.42 23.9915C718.808 25.3679 718.269 26.7966 717.802 28.2777C717.343 29.7507 716.993 31.2036 716.751 32.6364C716.429 34.5521 716.293 36.492 716.341 38.456C716.397 40.42 716.607 42.2431 716.969 43.9254C717.339 45.6077 717.834 46.9801 718.454 48.0426H715.134C713.966 45.8935 713.194 43.5471 712.815 41.0036C712.437 38.46 712.501 35.6709 713.009 32.6364ZM726.421 45L730.526 20.2727H734.257L730.683 41.7884H741.887L741.356 45H726.421ZM756.667 45.3743C754.848 45.3743 753.343 44.9839 752.151 44.2031C750.968 43.4143 750.139 42.3075 749.664 40.8828C749.189 39.45 749.113 37.7718 749.435 35.848C749.749 33.9484 750.381 32.2741 751.33 30.8253C752.28 29.3764 753.463 28.2455 754.88 27.4325C756.305 26.6196 757.878 26.2131 759.601 26.2131C760.647 26.2131 761.633 26.3861 762.559 26.7322C763.493 27.0784 764.286 27.6217 764.938 28.3622C765.59 29.1027 766.04 30.0646 766.29 31.2479C766.547 32.4231 766.539 33.8518 766.266 35.5341L766.06 36.8139H751.306L751.729 34.1094H762.933C763.102 33.1596 763.058 32.3184 762.801 31.5859C762.543 30.8454 762.1 30.2618 761.472 29.8352C760.853 29.4086 760.072 29.1953 759.13 29.1953C758.164 29.1953 757.263 29.4489 756.426 29.956C755.588 30.4631 754.888 31.111 754.325 31.8999C753.769 32.6806 753.419 33.4856 753.274 34.3146L752.852 36.7898C752.642 38.142 752.679 39.2287 752.96 40.0497C753.25 40.8707 753.757 41.4664 754.482 41.8366C755.206 42.2069 756.112 42.392 757.198 42.392C757.899 42.392 758.547 42.2955 759.142 42.1023C759.746 41.901 760.281 41.6072 760.748 41.2209C761.215 40.8265 761.605 40.3355 761.919 39.7479L765.227 40.3636C764.785 41.3698 764.149 42.2512 763.32 43.0078C762.491 43.7564 761.513 44.34 760.386 44.7585C759.267 45.169 758.027 45.3743 756.667 45.3743ZM783.892 26.4545L783.421 29.3523H773.291L773.762 26.4545H783.892ZM777.203 22.0114H780.813L777.891 39.5547C777.778 40.255 777.798 40.7822 777.951 41.1364C778.104 41.4825 778.338 41.7199 778.652 41.8487C778.974 41.9695 779.332 42.0298 779.726 42.0298C780.016 42.0298 780.27 42.0097 780.487 41.9695C780.704 41.9292 780.877 41.897 781.006 41.8729L781.199 44.8551C780.958 44.9356 780.632 45.0161 780.221 45.0966C779.819 45.1851 779.328 45.2334 778.748 45.2415C777.798 45.2576 776.941 45.0885 776.177 44.7344C775.412 44.3722 774.84 43.8248 774.462 43.0923C774.084 42.3518 773.991 41.4221 774.184 40.3033L777.203 22.0114ZM796.332 20.2727L795.97 22.5909C795.857 23.2751 795.608 23.9955 795.221 24.7521C794.843 25.5007 794.364 26.2211 793.784 26.9134C793.213 27.6056 792.581 28.2012 791.889 28.7003L790.295 27.4205C790.883 26.7282 791.414 25.9917 791.889 25.2109C792.364 24.4302 792.682 23.5689 792.843 22.6271L793.241 20.2727H796.332ZM813.013 30.9822L809.645 31.5618C809.572 31.1352 809.423 30.7327 809.198 30.3544C808.981 29.9761 808.647 29.6702 808.196 29.4368C807.745 29.1953 807.145 29.0746 806.397 29.0746C805.358 29.0746 804.449 29.312 803.668 29.7869C802.895 30.2618 802.453 30.8655 802.34 31.598C802.235 32.1937 802.376 32.6766 802.763 33.0469C803.149 33.4091 803.829 33.7109 804.803 33.9524L807.653 34.6286C809.295 35.023 810.47 35.6387 811.178 36.4759C811.894 37.3049 812.144 38.3835 811.927 39.7116C811.742 40.8144 811.259 41.7924 810.478 42.6456C809.705 43.4988 808.715 44.1669 807.508 44.6499C806.3 45.1328 804.956 45.3743 803.475 45.3743C801.366 45.3743 799.724 44.9276 798.549 44.0341C797.374 43.1406 796.77 41.8769 796.738 40.2429L800.312 39.7116C800.376 40.6212 800.702 41.3094 801.29 41.7763C801.885 42.2351 802.71 42.4645 803.765 42.4645C804.972 42.4725 805.982 42.219 806.795 41.7038C807.608 41.1887 808.071 40.5649 808.184 39.8324C808.28 39.2609 808.152 38.786 807.797 38.4077C807.451 38.0294 806.84 37.7396 805.962 37.5384L802.968 36.8501C801.294 36.4557 800.11 35.8198 799.418 34.9425C798.726 34.0651 798.492 32.9624 798.718 31.6342C798.895 30.5476 799.354 29.6018 800.094 28.7969C800.843 27.9839 801.789 27.352 802.932 26.9013C804.075 26.4425 805.338 26.2131 806.723 26.2131C808.743 26.2131 810.26 26.6477 811.275 27.517C812.289 28.3783 812.868 29.5334 813.013 30.9822ZM831.09 45L835.195 20.2727H844.251C846.006 20.2727 847.41 20.5625 848.465 21.142C849.527 21.7135 850.26 22.4903 850.662 23.4723C851.065 24.4463 851.161 25.545 850.952 26.7685C850.783 27.7988 850.449 28.6641 849.95 29.3643C849.459 30.0646 848.863 30.6281 848.163 31.0547C847.462 31.4813 846.726 31.7912 845.953 31.9844L845.905 32.2259C846.71 32.2661 847.462 32.5317 848.163 33.0227C848.871 33.5057 849.41 34.1939 849.781 35.0874C850.151 35.9808 850.235 37.0675 850.034 38.3473C849.817 39.611 849.326 40.746 848.561 41.7521C847.805 42.7502 846.762 43.5431 845.434 44.1307C844.106 44.7102 842.484 45 840.568 45H831.09ZM835.352 41.8004H840.737C842.524 41.8004 843.86 41.4543 844.746 40.7621C845.639 40.0698 846.179 39.2045 846.364 38.1662C846.484 37.3854 846.4 36.669 846.11 36.017C845.828 35.3651 845.354 34.8459 844.685 34.4595C844.025 34.0732 843.196 33.88 842.198 33.88H836.681L835.352 41.8004ZM837.176 30.9702H842.162C842.999 30.9702 843.78 30.8092 844.504 30.4872C845.237 30.1652 845.845 29.7105 846.328 29.1229C846.819 28.5353 847.124 27.8471 847.245 27.0582C847.422 26.0279 847.209 25.1707 846.605 24.4865C846.01 23.7943 844.975 23.4482 843.502 23.4482H838.407L837.176 30.9702ZM869.474 37.3089L871.285 26.4545H874.908L871.817 45H868.267L868.81 41.7884H868.617C868.038 42.7784 867.217 43.6035 866.154 44.2635C865.1 44.9155 863.876 45.2415 862.484 45.2415C861.292 45.2415 860.282 44.9799 859.453 44.4567C858.632 43.9254 858.048 43.1406 857.702 42.1023C857.356 41.0639 857.308 39.7801 857.557 38.2507L859.538 26.4545H863.148L861.252 37.8161C861.051 39.0798 861.24 40.0859 861.819 40.8345C862.399 41.5831 863.244 41.9574 864.355 41.9574C865.031 41.9574 865.731 41.7884 866.456 41.4503C867.18 41.1122 867.82 40.6011 868.376 39.9169C868.939 39.2327 869.305 38.3634 869.474 37.3089ZM880.067 45L883.158 26.4545H886.768L883.677 45H880.067ZM885.718 23.5568C885.09 23.5568 884.559 23.3475 884.124 22.929C883.698 22.5024 883.5 21.9953 883.533 21.4077C883.565 20.812 883.814 20.3049 884.281 19.8864C884.748 19.4598 885.291 19.2464 885.911 19.2464C886.539 19.2464 887.066 19.4598 887.493 19.8864C887.919 20.3049 888.121 20.812 888.096 21.4077C888.064 21.9953 887.815 22.5024 887.348 22.929C886.889 23.3475 886.346 23.5568 885.718 23.5568ZM899.649 20.2727L895.544 45H891.934L896.039 20.2727H899.649ZM910.719 45.3622C909.214 45.3622 907.938 44.9799 906.892 44.2152C905.853 43.4425 905.117 42.3437 904.682 40.919C904.256 39.4863 904.207 37.7678 904.537 35.7635C904.875 33.7592 905.499 32.0447 906.409 30.62C907.318 29.1953 908.421 28.1046 909.717 27.348C911.013 26.5914 912.41 26.2131 913.907 26.2131C915.058 26.2131 915.951 26.4062 916.587 26.7926C917.231 27.1709 917.706 27.6136 918.012 28.1207C918.318 28.6278 918.547 29.0746 918.7 29.4609H918.905L920.439 20.2727H924.049L919.944 45H916.418L916.913 42.1143H916.611C916.33 42.5088 915.939 42.9595 915.44 43.4666C914.949 43.9737 914.321 44.4164 913.557 44.7947C912.792 45.1731 911.846 45.3622 910.719 45.3622ZM911.939 42.2834C912.977 42.2834 913.907 42.0097 914.728 41.4624C915.557 40.907 916.245 40.1383 916.792 39.1562C917.348 38.1742 917.734 37.0312 917.951 35.7273C918.169 34.4394 918.165 33.3125 917.939 32.3466C917.714 31.3807 917.279 30.6281 916.635 30.0888C915.991 29.5495 915.142 29.2798 914.088 29.2798C913.001 29.2798 912.055 29.5616 911.25 30.125C910.446 30.6884 909.786 31.4571 909.27 32.4311C908.763 33.4051 908.409 34.5038 908.208 35.7273C907.999 36.9669 907.991 38.0817 908.184 39.0717C908.377 40.0618 908.783 40.8466 909.403 41.4261C910.023 41.9976 910.868 42.2834 911.939 42.2834ZM941.172 45L945.277 20.2727H960.78L960.249 23.4844H948.477L947.221 31.0185H958.184L957.653 34.218H946.69L945.434 41.7884H957.351L956.82 45H941.172ZM971.687 45.3622C970.182 45.3622 968.906 44.9799 967.859 44.2152C966.821 43.4425 966.085 42.3437 965.65 40.919C965.223 39.4863 965.175 37.7678 965.505 35.7635C965.843 33.7592 966.467 32.0447 967.376 30.62C968.286 29.1953 969.389 28.1046 970.685 27.348C971.981 26.5914 973.377 26.2131 974.874 26.2131C976.025 26.2131 976.919 26.4062 977.555 26.7926C978.199 27.1709 978.674 27.6136 978.979 28.1207C979.285 28.6278 979.515 29.0746 979.668 29.4609H979.873L981.406 20.2727H985.016L980.911 45H977.386L977.881 42.1143H977.579C977.297 42.5088 976.907 42.9595 976.408 43.4666C975.917 43.9737 975.289 44.4164 974.524 44.7947C973.76 45.1731 972.814 45.3622 971.687 45.3622ZM972.906 42.2834C973.945 42.2834 974.874 42.0097 975.695 41.4624C976.524 40.907 977.213 40.1383 977.76 39.1562C978.315 38.1742 978.702 37.0312 978.919 35.7273C979.136 34.4394 979.132 33.3125 978.907 32.3466C978.682 31.3807 978.247 30.6281 977.603 30.0888C976.959 29.5495 976.11 29.2798 975.055 29.2798C973.969 29.2798 973.023 29.5616 972.218 30.125C971.413 30.6884 970.753 31.4571 970.238 32.4311C969.731 33.4051 969.377 34.5038 969.175 35.7273C968.966 36.9669 968.958 38.0817 969.151 39.0717C969.345 40.0618 969.751 40.8466 970.371 41.4261C970.991 41.9976 971.836 42.2834 972.906 42.2834ZM989.452 45L992.543 26.4545H996.153L993.062 45H989.452ZM995.102 23.5568C994.474 23.5568 993.943 23.3475 993.509 22.929C993.082 22.5024 992.885 21.9953 992.917 21.4077C992.949 20.812 993.199 20.3049 993.665 19.8864C994.132 19.4598 994.676 19.2464 995.295 19.2464C995.923 19.2464 996.451 19.4598 996.877 19.8864C997.304 20.3049 997.505 20.812 997.481 21.4077C997.449 21.9953 997.199 22.5024 996.732 22.929C996.273 23.3475 995.73 23.5568 995.102 23.5568ZM1013.07 26.4545L1012.6 29.3523H1002.47L1002.94 26.4545H1013.07ZM1006.38 22.0114H1009.99L1007.07 39.5547C1006.95 40.255 1006.97 40.7822 1007.13 41.1364C1007.28 41.4825 1007.51 41.7199 1007.83 41.8487C1008.15 41.9695 1008.51 42.0298 1008.9 42.0298C1009.19 42.0298 1009.44 42.0097 1009.66 41.9695C1009.88 41.9292 1010.05 41.897 1010.18 41.8729L1010.37 44.8551C1010.13 44.9356 1009.81 45.0161 1009.4 45.0966C1008.99 45.1851 1008.5 45.2334 1007.92 45.2415C1006.97 45.2576 1006.12 45.0885 1005.35 44.7344C1004.59 44.3722 1004.01 43.8248 1003.64 43.0923C1003.26 42.3518 1003.17 41.4221 1003.36 40.3033L1006.38 22.0114ZM1017.37 45L1020.46 26.4545H1024.07L1020.98 45H1017.37ZM1023.02 23.5568C1022.39 23.5568 1021.86 23.3475 1021.43 22.929C1021 22.5024 1020.8 21.9953 1020.83 21.4077C1020.87 20.812 1021.12 20.3049 1021.58 19.8864C1022.05 19.4598 1022.59 19.2464 1023.21 19.2464C1023.84 19.2464 1024.37 19.4598 1024.79 19.8864C1025.22 20.3049 1025.42 20.812 1025.4 21.4077C1025.37 21.9953 1025.12 22.5024 1024.65 22.929C1024.19 23.3475 1023.65 23.5568 1023.02 23.5568ZM1037.13 45.3743C1035.37 45.3743 1033.9 44.9718 1032.71 44.1669C1031.53 43.3539 1030.7 42.219 1030.21 40.7621C1029.74 39.2971 1029.66 37.5947 1029.97 35.6548C1030.28 33.7552 1030.89 32.0971 1031.82 30.6804C1032.75 29.2637 1033.92 28.165 1035.32 27.3842C1036.73 26.6035 1038.3 26.2131 1040.02 26.2131C1041.78 26.2131 1043.25 26.6196 1044.42 27.4325C1045.61 28.2455 1046.44 29.3845 1046.92 30.8494C1047.41 32.3144 1047.49 34.0208 1047.18 35.9688C1046.87 37.8523 1046.25 39.5024 1045.31 40.919C1044.37 42.3277 1043.21 43.4223 1041.8 44.2031C1040.4 44.9839 1038.85 45.3743 1037.13 45.3743ZM1037.34 42.3438C1038.5 42.3438 1039.51 42.0379 1040.37 41.4261C1041.24 40.8144 1041.95 40.0014 1042.49 38.9872C1043.04 37.973 1043.41 36.8622 1043.62 35.6548C1043.8 34.4877 1043.8 33.4212 1043.6 32.4553C1043.42 31.4813 1043.02 30.7005 1042.4 30.1129C1041.78 29.5253 1040.92 29.2315 1039.81 29.2315C1038.65 29.2315 1037.64 29.5414 1036.76 30.1612C1035.89 30.773 1035.18 31.59 1034.63 32.6122C1034.09 33.6345 1033.73 34.7493 1033.53 35.9567C1033.35 37.1158 1033.35 38.1823 1033.53 39.1562C1033.72 40.1222 1034.12 40.8949 1034.74 41.4744C1035.36 42.054 1036.23 42.3438 1037.34 42.3438ZM1058.56 33.9886L1056.74 45H1053.13L1056.23 26.4545H1059.69L1059.18 29.473H1059.41C1060 28.483 1060.8 27.6941 1061.82 27.1065C1062.84 26.5109 1064.04 26.2131 1065.44 26.2131C1066.69 26.2131 1067.75 26.4787 1068.6 27.0099C1069.46 27.5331 1070.07 28.3139 1070.42 29.3523C1070.79 30.3906 1070.84 31.6745 1070.59 33.2038L1068.61 45H1065L1066.9 33.6385C1067.12 32.2943 1066.94 31.2438 1066.37 30.4872C1065.8 29.7225 1064.91 29.3402 1063.67 29.3402C1062.84 29.3402 1062.06 29.5213 1061.34 29.8835C1060.64 30.2457 1060.04 30.777 1059.55 31.4773C1059.06 32.1695 1058.73 33.0066 1058.56 33.9886ZM1085.5 34.7372C1084.99 37.7718 1084.13 40.5608 1082.92 43.1044C1081.71 45.648 1080.15 47.9943 1078.25 50.1435H1074.95C1075.68 49.3466 1076.4 48.3686 1077.1 47.2095C1077.8 46.0504 1078.46 44.7827 1079.08 43.4062C1079.7 42.0218 1080.24 40.589 1080.69 39.108C1081.15 37.6269 1081.5 36.17 1081.74 34.7372C1082.07 32.8295 1082.2 30.8937 1082.14 28.9297C1082.09 26.9657 1081.89 25.1425 1081.51 23.4602C1081.15 21.7779 1080.66 20.4055 1080.04 19.343H1083.36C1084.53 21.4922 1085.3 23.8385 1085.68 26.3821C1086.06 28.9257 1086 31.7107 1085.5 34.7372Z" fill="#B4B4B4"/>
<path d="M72.2979 51.2485L60.3 64.113C60.0405 64.3925 59.7262 64.6155 59.3767 64.768C59.0273 64.9206 58.6501 64.9997 58.2688 65H1.394C1.12274 64.9999 0.857406 64.9206 0.630489 64.772C0.403579 64.6233 0.224939 64.4117 0.116436 64.1631C0.00793426 63.9145 -0.0257167 63.6397 0.0196071 63.3722C0.0649309 63.1048 0.187252 62.8563 0.371608 62.6573L12.3559 49.7928C12.6155 49.5134 12.9297 49.2904 13.2792 49.1378C13.6286 48.9852 14.0058 48.9062 14.3872 48.9058H71.2619C71.5355 48.9002 71.805 48.9756 72.0358 49.1227C72.2667 49.2697 72.4495 49.4818 72.5599 49.7322C72.6709 49.9826 72.7048 50.2602 72.6581 50.53C72.6114 50.7999 72.4861 51.0498 72.2979 51.2485ZM60.3 25.3366C60.0395 25.0585 59.725 24.8364 59.3758 24.6838C59.0265 24.5314 58.6498 24.4517 58.2688 24.4497H1.394C1.12274 24.4498 0.857406 24.5291 0.630489 24.6778C0.403579 24.8264 0.224939 25.038 0.116436 25.2866C0.00793426 25.5352 -0.0257167 25.81 0.0196071 26.0775C0.0649309 26.3449 0.187252 26.5934 0.371608 26.7924L12.3559 39.6637C12.6164 39.9419 12.9309 40.1639 13.2801 40.3165C13.6294 40.469 14.0061 40.5487 14.3872 40.5506H71.2619C71.5328 40.5492 71.7968 40.469 72.023 40.3199C72.2491 40.1707 72.4265 39.9591 72.5342 39.7107C72.6418 39.4623 72.675 39.188 72.629 38.9212C72.5836 38.6543 72.4617 38.4065 72.2775 38.208L60.3 25.3366ZM1.394 16.0945H58.2688C58.6501 16.0941 59.0273 16.0151 59.3767 15.8625C59.7262 15.71 60.0405 15.4869 60.3 15.2075L72.2979 2.343C72.4861 2.14429 72.6114 1.8943 72.6581 1.62449C72.7048 1.35468 72.6709 1.0771 72.5599 0.826674C72.4495 0.576249 72.2667 0.364172 72.0358 0.217128C71.805 0.0700841 71.5355 -0.00535768 71.2619 0.000296021H14.3872C14.0058 0.000697422 13.6286 0.0796621 13.2792 0.232267C12.9297 0.38487 12.6155 0.60784 12.3559 0.887272L0.371608 13.7518C0.187252 13.9508 0.0649309 14.1993 0.0196071 14.4667C-0.0257167 14.7341 0.00793426 15.009 0.116436 15.2576C0.224939 15.5062 0.403579 15.7178 0.630489 15.8664C0.857406 16.0151 1.12274 16.0943 1.394 16.0945Z" fill="#14F195"/>
<path d="M72.2979 51.2485L60.3 64.113C60.0405 64.3925 59.7262 64.6155 59.3767 64.768C59.0273 64.9206 58.6501 64.9997 58.2688 65H1.394C1.12274 64.9999 0.857406 64.9206 0.630489 64.772C0.403579 64.6233 0.224939 64.4117 0.116436 64.1631C0.00793426 63.9145 -0.0257167 63.6397 0.0196071 63.3722C0.0649309 63.1048 0.187252 62.8563 0.371608 62.6573L12.3559 49.7928C12.6155 49.5134 12.9297 49.2904 13.2792 49.1378C13.6286 48.9852 14.0058 48.9062 14.3872 48.9058H71.2619C71.5355 48.9002 71.805 48.9756 72.0358 49.1227C72.2667 49.2697 72.4495 49.4818 72.5599 49.7322C72.6709 49.9826 72.7048 50.2602 72.6581 50.53C72.6114 50.7999 72.4861 51.0498 72.2979 51.2485ZM60.3 25.3366C60.0395 25.0585 59.725 24.8364 59.3758 24.6838C59.0265 24.5314 58.6498 24.4517 58.2688 24.4497H1.394C1.12274 24.4498 0.857406 24.5291 0.630489 24.6778C0.403579 24.8264 0.224939 25.038 0.116436 25.2866C0.00793426 25.5352 -0.0257167 25.81 0.0196071 26.0775C0.0649309 26.3449 0.187252 26.5934 0.371608 26.7924L12.3559 39.6637C12.6164 39.9419 12.9309 40.1639 13.2801 40.3165C13.6294 40.469 14.0061 40.5487 14.3872 40.5506H71.2619C71.5328 40.5492 71.7968 40.469 72.023 40.3199C72.2491 40.1707 72.4265 39.9591 72.5342 39.7107C72.6418 39.4623 72.675 39.188 72.629 38.9212C72.5836 38.6543 72.4617 38.4065 72.2775 38.208L60.3 25.3366ZM1.394 16.0945H58.2688C58.6501 16.0941 59.0273 16.0151 59.3767 15.8625C59.7262 15.71 60.0405 15.4869 60.3 15.2075L72.2979 2.343C72.4861 2.14429 72.6114 1.8943 72.6581 1.62449C72.7048 1.35468 72.6709 1.0771 72.5599 0.826674C72.4495 0.576249 72.2667 0.364172 72.0358 0.217128C71.805 0.0700841 71.5355 -0.00535768 71.2619 0.000296021H14.3872C14.0058 0.000697422 13.6286 0.0796621 13.2792 0.232267C12.9297 0.38487 12.6155 0.60784 12.3559 0.887272L0.371608 13.7518C0.187252 13.9508 0.0649309 14.1993 0.0196071 14.4667C-0.0257167 14.7341 0.00793426 15.009 0.116436 15.2576C0.224939 15.5062 0.403579 15.7178 0.630489 15.8664C0.857406 16.0151 1.12274 16.0943 1.394 16.0945Z" fill="url(#paint0_linear_404_8)"/>
<path d="M141.638 27.4906H111.21V17.4698H149.546V7.44902H111.108C109.795 7.44192 108.493 7.69352 107.277 8.18948C106.061 8.68551 104.954 9.41615 104.021 10.3398C103.087 11.2634 102.345 12.3619 101.835 13.5724C101.326 14.783 101.06 16.0821 101.053 17.3953V27.5515C101.059 28.866 101.323 30.1665 101.831 31.3786C102.34 32.5908 103.082 33.6908 104.016 34.6159C104.95 35.541 106.057 36.2728 107.274 36.7697C108.491 37.2665 109.794 37.5186 111.108 37.5114H141.577V47.5322H101.778V57.553H141.638C142.951 57.5602 144.253 57.3085 145.469 56.8125C146.685 56.3165 147.792 55.5859 148.725 54.6623C149.658 53.7387 150.401 52.6402 150.91 51.4296C151.419 50.219 151.686 48.9199 151.692 47.6067V37.4505C151.687 36.136 151.423 34.8356 150.914 33.6234C150.406 32.4112 149.664 31.3112 148.73 30.3861C147.796 29.4611 146.689 28.7293 145.472 28.2324C144.255 27.7356 142.952 27.4835 141.638 27.4906Z" fill="#14F195"/>
<path d="M141.638 27.4906H111.21V17.4698H149.546V7.44902H111.108C109.795 7.44192 108.493 7.69352 107.277 8.18948C106.061 8.68551 104.954 9.41615 104.021 10.3398C103.087 11.2634 102.345 12.3619 101.835 13.5724C101.326 14.783 101.06 16.0821 101.053 17.3953V27.5515C101.059 28.866 101.323 30.1665 101.831 31.3786C102.34 32.5908 103.082 33.6908 104.016 34.6159C104.95 35.541 106.057 36.2728 107.274 36.7697C108.491 37.2665 109.794 37.5186 111.108 37.5114H141.577V47.5322H101.778V57.553H141.638C142.951 57.5602 144.253 57.3085 145.469 56.8125C146.685 56.3165 147.792 55.5859 148.725 54.6623C149.658 53.7387 150.401 52.6402 150.91 51.4296C151.419 50.219 151.686 48.9199 151.692 47.6067V37.4505C151.687 36.136 151.423 34.8356 150.914 33.6234C150.406 32.4112 149.664 31.3112 148.73 30.3861C147.796 29.4611 146.689 28.7293 145.472 28.2324C144.255 27.7356 142.952 27.4835 141.638 27.4906Z" fill="url(#paint1_linear_404_8)"/>
<path d="M200.584 7.44921H170.041C168.726 7.43851 167.421 7.68747 166.201 8.18188C164.983 8.67628 163.873 9.40631 162.937 10.3303C161.999 11.2543 161.255 12.3539 160.744 13.5663C160.233 14.7787 159.966 16.08 159.959 17.3955V47.6069C159.966 48.9224 160.233 50.2237 160.744 51.4361C161.255 52.6485 161.999 53.7481 162.937 54.6721C163.873 55.5961 164.983 56.3261 166.201 56.8205C167.421 57.3149 168.726 57.5639 170.041 57.5532H200.584C201.898 57.5603 203.199 57.3087 204.415 56.8127C205.631 56.3167 206.738 55.5861 207.671 54.6624C208.605 53.7388 209.348 52.6403 209.857 51.4298C210.366 50.2192 210.632 48.9201 210.639 47.6069V17.3955C210.632 16.0823 210.366 14.7832 209.857 13.5726C209.348 12.362 208.605 11.2635 207.671 10.3399C206.738 9.41633 205.631 8.68569 204.415 8.18966C203.199 7.6937 201.898 7.4421 200.584 7.44921ZM200.51 47.5324H170.116V17.47H200.496L200.51 47.5324Z" fill="#14F195"/>
<path d="M200.584 7.44921H170.041C168.726 7.43851 167.421 7.68747 166.201 8.18188C164.983 8.67628 163.873 9.40631 162.937 10.3303C161.999 11.2543 161.255 12.3539 160.744 13.5663C160.233 14.7787 159.966 16.08 159.959 17.3955V47.6069C159.966 48.9224 160.233 50.2237 160.744 51.4361C161.255 52.6485 161.999 53.7481 162.937 54.6721C163.873 55.5961 164.983 56.3261 166.201 56.8205C167.421 57.3149 168.726 57.5639 170.041 57.5532H200.584C201.898 57.5603 203.199 57.3087 204.415 56.8127C205.631 56.3167 206.738 55.5861 207.671 54.6624C208.605 53.7388 209.348 52.6403 209.857 51.4298C210.366 50.2192 210.632 48.9201 210.639 47.6069V17.3955C210.632 16.0823 210.366 14.7832 209.857 13.5726C209.348 12.362 208.605 11.2635 207.671 10.3399C206.738 9.41633 205.631 8.68569 204.415 8.18966C203.199 7.6937 201.898 7.4421 200.584 7.44921ZM200.51 47.5324H170.116V17.47H200.496L200.51 47.5324Z" fill="url(#paint2_linear_404_8)"/>
<path d="M307.563 7.44866H277.772C276.458 7.44155 275.157 7.69315 273.941 8.18911C272.725 8.68514 271.618 9.41578 270.685 10.3394C269.751 11.263 269.008 12.3615 268.499 13.572C267.99 14.7827 267.724 16.0817 267.717 17.395V57.5526H277.873V41.0928H307.529V57.5526H317.685V17.395C317.679 16.0759 317.411 14.7714 316.897 13.5563C316.383 12.3412 315.635 11.2398 314.694 10.3152C313.754 9.39073 312.639 8.66151 311.415 8.16954C310.191 7.67758 308.882 7.43261 307.563 7.44866ZM307.489 31.072H277.832V17.4694H307.489V31.072Z" fill="#14F195"/>
<path d="M307.563 7.44866H277.772C276.458 7.44155 275.157 7.69315 273.941 8.18911C272.725 8.68514 271.618 9.41578 270.685 10.3394C269.751 11.263 269.008 12.3615 268.499 13.572C267.99 14.7827 267.724 16.0817 267.717 17.395V57.5526H277.873V41.0928H307.529V57.5526H317.685V17.395C317.679 16.0759 317.411 14.7714 316.897 13.5563C316.383 12.3412 315.635 11.2398 314.694 10.3152C313.754 9.39073 312.639 8.66151 311.415 8.16954C310.191 7.67758 308.882 7.43261 307.563 7.44866ZM307.489 31.072H277.832V17.4694H307.489V31.072Z" fill="url(#paint3_linear_404_8)"/>
<path d="M426.154 7.44902H396.362C395.049 7.44192 393.747 7.69352 392.531 8.18948C391.315 8.68551 390.209 9.41615 389.275 10.3398C388.341 11.2634 387.599 12.3619 387.089 13.5724C386.58 14.783 386.314 16.0821 386.307 17.3953V57.553H396.464V41.0932H426.052V57.553H436.208V17.3953C436.201 16.0821 435.935 14.783 435.426 13.5724C434.917 12.3619 434.174 11.2634 433.241 10.3398C432.307 9.41615 431.201 8.68551 429.985 8.18948C428.768 7.69352 427.467 7.44192 426.154 7.44902ZM426.052 31.0724H396.396V17.4698H426.052V31.0724Z" fill="#14F195"/>
<path d="M426.154 7.44902H396.362C395.049 7.44192 393.747 7.69352 392.531 8.18948C391.315 8.68551 390.209 9.41615 389.275 10.3398C388.341 11.2634 387.599 12.3619 387.089 13.5724C386.58 14.783 386.314 16.0821 386.307 17.3953V57.553H396.464V41.0932H426.052V57.553H436.208V17.3953C436.201 16.0821 435.935 14.783 435.426 13.5724C434.917 12.3619 434.174 11.2634 433.241 10.3398C432.307 9.41615 431.201 8.68551 429.985 8.18948C428.768 7.69352 427.467 7.44192 426.154 7.44902ZM426.052 31.0724H396.396V17.4698H426.052V31.0724Z" fill="url(#paint4_linear_404_8)"/>
<path d="M367.146 47.5321H363.084L348.56 11.6469C348.063 10.4088 347.206 9.34777 346.101 8.59987C344.996 7.8519 343.693 7.45113 342.358 7.44897H333.346C332.47 7.4445 331.602 7.61262 330.792 7.94364C329.981 8.27473 329.243 8.76223 328.62 9.37837C327.998 9.99458 327.503 10.7273 327.164 11.5347C326.825 12.3422 326.648 13.2085 326.643 14.0844V57.5529H336.799V17.4698H340.862L355.378 53.355C355.884 54.5907 356.748 55.6474 357.857 56.3903C358.966 57.1333 360.272 57.5285 361.608 57.5258H370.62C371.496 57.5303 372.364 57.3623 373.174 57.0312C373.985 56.7001 374.723 56.2126 375.346 55.5964C375.968 54.9803 376.463 54.2475 376.802 53.4401C377.141 52.6326 377.318 51.7663 377.323 50.8904V7.44897H367.146V47.5321Z" fill="#14F195"/>
<path d="M367.146 47.5321H363.084L348.56 11.6469C348.063 10.4088 347.206 9.34777 346.101 8.59987C344.996 7.8519 343.693 7.45113 342.358 7.44897H333.346C332.47 7.4445 331.602 7.61262 330.792 7.94364C329.981 8.27473 329.243 8.76223 328.62 9.37837C327.998 9.99458 327.503 10.7273 327.164 11.5347C326.825 12.3422 326.648 13.2085 326.643 14.0844V57.5529H336.799V17.4698H340.862L355.378 53.355C355.884 54.5907 356.748 55.6474 357.857 56.3903C358.966 57.1333 360.272 57.5285 361.608 57.5258H370.62C371.496 57.5303 372.364 57.3623 373.174 57.0312C373.985 56.7001 374.723 56.2126 375.346 55.5964C375.968 54.9803 376.463 54.2475 376.802 53.4401C377.141 52.6326 377.318 51.7663 377.323 50.8904V7.44897H367.146V47.5321Z" fill="url(#paint5_linear_404_8)"/>
<path d="M229.766 7.44888H219.61V47.6065C219.617 48.9227 219.884 50.2245 220.396 51.4373C220.907 52.6502 221.652 53.7501 222.589 54.6742C223.527 55.5983 224.638 56.3281 225.857 56.8221C227.077 57.3161 228.383 57.5644 229.699 57.5529H260.167V47.5321H229.766V7.44888Z" fill="#14F195"/>
<path d="M229.766 7.44888H219.61V47.6065C219.617 48.9227 219.884 50.2245 220.396 51.4373C220.907 52.6502 221.652 53.7501 222.589 54.6742C223.527 55.5983 224.638 56.3281 225.857 56.8221C227.077 57.3161 228.383 57.5644 229.699 57.5529H260.167V47.5321H229.766V7.44888Z" fill="url(#paint6_linear_404_8)"/>
<defs>
<linearGradient id="paint0_linear_404_8" x1="100" y1="49.9999" x2="596" y2="11" gradientUnits="userSpaceOnUse">
<stop stop-color="white" stop-opacity="0"/>
<stop stop-color="white"/>
<stop offset="0.885701" stop-color="white"/>
<stop offset="0.989583" stop-color="white" stop-opacity="0"/>
<stop offset="0.989683" stop-color="white" stop-opacity="0"/>
</linearGradient>
<linearGradient id="paint1_linear_404_8" x1="100" y1="49.9999" x2="596" y2="11" gradientUnits="userSpaceOnUse">
<stop stop-color="white" stop-opacity="0"/>
<stop stop-color="white"/>
<stop offset="0.885701" stop-color="white"/>
<stop offset="0.989583" stop-color="white" stop-opacity="0"/>
<stop offset="0.989683" stop-color="white" stop-opacity="0"/>
</linearGradient>
<linearGradient id="paint2_linear_404_8" x1="100" y1="49.9999" x2="596" y2="11" gradientUnits="userSpaceOnUse">
<stop stop-color="white" stop-opacity="0"/>
<stop stop-color="white"/>
<stop offset="0.885701" stop-color="white"/>
<stop offset="0.989583" stop-color="white" stop-opacity="0"/>
<stop offset="0.989683" stop-color="white" stop-opacity="0"/>
</linearGradient>
<linearGradient id="paint3_linear_404_8" x1="100" y1="49.9999" x2="596" y2="11" gradientUnits="userSpaceOnUse">
<stop stop-color="white" stop-opacity="0"/>
<stop stop-color="white"/>
<stop offset="0.885701" stop-color="white"/>
<stop offset="0.989583" stop-color="white" stop-opacity="0"/>
<stop offset="0.989683" stop-color="white" stop-opacity="0"/>
</linearGradient>
<linearGradient id="paint4_linear_404_8" x1="100" y1="49.9999" x2="596" y2="11" gradientUnits="userSpaceOnUse">
<stop stop-color="white" stop-opacity="0"/>
<stop stop-color="white"/>
<stop offset="0.885701" stop-color="white"/>
<stop offset="0.989583" stop-color="white" stop-opacity="0"/>
<stop offset="0.989683" stop-color="white" stop-opacity="0"/>
</linearGradient>
<linearGradient id="paint5_linear_404_8" x1="100" y1="49.9999" x2="596" y2="11" gradientUnits="userSpaceOnUse">
<stop stop-color="white" stop-opacity="0"/>
<stop stop-color="white"/>
<stop offset="0.885701" stop-color="white"/>
<stop offset="0.989583" stop-color="white" stop-opacity="0"/>
<stop offset="0.989683" stop-color="white" stop-opacity="0"/>
</linearGradient>
<linearGradient id="paint6_linear_404_8" x1="100" y1="49.9999" x2="596" y2="11" gradientUnits="userSpaceOnUse">
<stop stop-color="white" stop-opacity="0"/>
<stop stop-color="white"/>
<stop offset="0.885701" stop-color="white"/>
<stop offset="0.989583" stop-color="white" stop-opacity="0"/>
<stop offset="0.989683" stop-color="white" stop-opacity="0"/>
</linearGradient>
</defs>
</svg>
